<?xml version="1.0" encoding="iso-8859-1"?>
<!-- Generator: Adobe Illustrator 19.0.0, SVG Export Plug-In . SVG Version: 6.00 Build 0)  -->
<svg version="1.1" id="Layer_1" xmlns="http://www.w3.org/2000/svg" xmlns:xlink="http://www.w3.org/1999/xlink" x="0px" y="0px"
	 viewBox="0 0 512 512" style="enable-background:new 0 0 512 512;" xml:space="preserve">
<path style="fill:#7A51CC;" d="M439.652,512H72.348c-9.217,0-16.696-7.479-16.696-16.696V16.696C55.652,7.479,63.131,0,72.348,0
	h233.739c4.424,0,8.674,1.761,11.804,4.892l133.565,133.565c3.131,3.13,4.892,7.379,4.892,11.804v345.043
	C456.348,504.521,448.869,512,439.652,512z"/>
<path style="fill:#5947B3;" d="M317.891,4.892C314.761,1.761,310.511,0,306.087,0H256v512h183.652
	c9.217,0,16.696-7.479,16.696-16.696V150.261c0-4.424-1.761-8.674-4.892-11.804L317.891,4.892z"/>
<path style="fill:#7A51CC;" d="M451.459,138.459L317.891,4.892C314.76,1.76,310.511,0,306.082,0h-16.691l0.001,150.261
	c0,9.22,7.475,16.696,16.696,16.696h150.26v-16.696C456.348,145.834,454.589,141.589,451.459,138.459z"/>
<g>
	<circle style="fill:#FFFFFF;" cx="139.13" cy="261.565" r="16.696"/>
	<circle style="fill:#FFFFFF;" cx="139.13" cy="328.348" r="16.696"/>
	<circle style="fill:#FFFFFF;" cx="139.13" cy="395.13" r="16.696"/>
	<path style="fill:#FFFFFF;" d="M372.87,411.826H205.913c-9.217,0-16.696-7.479-16.696-16.696c0-9.217,7.479-16.696,16.696-16.696
		H372.87c9.217,0,16.696,7.479,16.696,16.696C389.565,404.348,382.087,411.826,372.87,411.826z"/>
</g>
<path style="fill:#E6F3FF;" d="M372.87,378.435H256v33.391h116.87c9.217,0,16.696-7.479,16.696-16.696
	C389.565,385.913,382.087,378.435,372.87,378.435z"/>
<path style="fill:#FFFFFF;" d="M372.87,345.043H205.913c-9.217,0-16.696-7.479-16.696-16.696c0-9.217,7.479-16.696,16.696-16.696
	H372.87c9.217,0,16.696,7.479,16.696,16.696C389.565,337.565,382.087,345.043,372.87,345.043z"/>
<path style="fill:#E6F3FF;" d="M372.87,311.652H256v33.391h116.87c9.217,0,16.696-7.479,16.696-16.696
	C389.565,319.131,382.087,311.652,372.87,311.652z"/>
<path style="fill:#FFFFFF;" d="M372.87,278.261H205.913c-9.217,0-16.696-7.479-16.696-16.696c0-9.217,7.479-16.696,16.696-16.696
	H372.87c9.217,0,16.696,7.479,16.696,16.696C389.565,270.782,382.087,278.261,372.87,278.261z"/>
<path style="fill:#E6F3FF;" d="M372.87,244.87H256v33.391h116.87c9.217,0,16.696-7.479,16.696-16.696
	C389.565,252.348,382.087,244.87,372.87,244.87z"/>
<g>
</g>
<g>
</g>
<g>
</g>
<g>
</g>
<g>
</g>
<g>
</g>
<g>
</g>
<g>
</g>
<g>
</g>
<g>
</g>
<g>
</g>
<g>
</g>
<g>
</g>
<g>
</g>
<g>
</g>
</svg>
